# xmcd CD database file
#
# Track frame offsets:
#	182
#	11507
#	22207
#	35962
#	46855
#	62117
#	74825
#	83700
#	95540
#	108280
#
# Disc length: 1612 seconds
#
# Revision: 0
# Processed by: cddbd v1.5.1PL0 Copyright (c) Steve Scherf et al.
# Submitted via: CDex 1.51
#
DISCID=89064a0a
DTITLE=Porter Wagoner and Dolly Parton - Porter and Dolly-Best Of The Best
DYEAR=1998
DGENRE=Country
TTITLE0=Holding On To Nothin'
TTITLE1=Just Between You And Me
TTITLE2=Daddy Was An Old Time Preacher Man
TTITLE3=Just Someone I Used To Know
TTITLE4=Lost Forever In Your Kiss
TTITLE5=Please Don't Stop Loving Me
TTITLE6=We'll Get Ahead Someday
TTITLE7=The Last Thing On My Mind
TTITLE8=Tomorrow Is Forever
TTITLE9=Forty Miles From Popar Bluff
EXTD=YEAR: 1998
EXTT0=
EXTT1=
EXTT2=
EXTT3=
EXTT4=
EXTT5=
EXTT6=
EXTT7=
EXTT8=
EXTT9=
PLAYORDER=
